M48
; DRILL file {KiCad (5.1.12)-1} date 01/08/22 12:52:38
; FORMAT={-:-/ absolute / inch / decimal}
; #@! TF.CreationDate,2022-01-08T12:52:38-05:00
; #@! TF.GenerationSoftware,Kicad,Pcbnew,(5.1.12)-1
; #@! TF.FileFunction,NonPlated,1,2,NPTH
FMAT,2
INCH
T1C0.1200
T2C0.1570
%
G90
G05
T1
X3.3425Y-4.9437
X4.2825Y-4.9437
X5.5938Y-6.2437
X5.9688Y-6.2437
X6.1565Y-6.2437
X6.3425Y-6.2437
X7.2825Y-6.2437
X8.2175Y-6.2437
X9.1575Y-6.2437
X9.7188Y-6.2437
X10.0935Y-6.2437
X10.0938Y-6.2437
X12.905Y-4.1937
X12.9987Y-2.6938
X13.845Y-4.1937
X13.9387Y-2.6938
X14.075Y-3.6237
X14.075Y-4.5637
T2
X3.3425Y-5.5438
X4.2825Y-5.5438
X5.5938Y-5.6437
X5.9688Y-5.6437
X6.1565Y-5.6437
X6.3425Y-5.6437
X7.2825Y-5.6437
X8.2175Y-5.6437
X9.1575Y-5.6437
X9.7188Y-5.6437
X10.0935Y-5.6437
X10.0938Y-5.6437
X12.905Y-4.7938
X12.9987Y-3.2937
X13.475Y-3.6237
X13.475Y-4.5637
X13.845Y-4.7938
X13.9387Y-3.2937
T0
M30
