M48
; DRILL file {KiCad (6.0.2)} date Sun Mar  6 15:53:24 2022
; FORMAT={-:-/ absolute / inch / decimal}
; #@! TF.CreationDate,2022-03-06T15:53:24-05:00
; #@! TF.GenerationSoftware,Kicad,Pcbnew,(6.0.2)
; #@! TF.FileFunction,Plated,1,2,PTH
FMAT,2
INCH
; #@! TA.AperFunction,Plated,PTH,ViaDrill
T1C0.0157
; #@! TA.AperFunction,Plated,PTH,ComponentDrill
T2C0.0394
; #@! TA.AperFunction,Plated,PTH,ComponentDrill
T3C0.0579
%
G90
G05
T1
X1.8695Y-3.2987
X1.8701Y-3.3386
X1.8728Y-4.1669
X1.8745Y-4.2064
X1.875Y-4.4375
X2.5Y-4.5312
X2.5063Y-4.2736
X2.5551Y-3.1654
X2.6024Y-3.2362
X2.6084Y-4.0931
X2.6371Y-4.2787
X2.6545Y-4.4262
X2.6587Y-4.5677
X2.6705Y-4.052
X2.6969Y-4.1535
X2.6969Y-5.2362
X2.6978Y-3.878
X2.6984Y-3.9173
X2.7067Y-4.4783
X2.7402Y-5.2831
X2.7559Y-4.7244
X2.7643Y-3.5507
X2.7756Y-4.6181
X2.9646Y-4.6181
X2.9724Y-3.9173
X2.9823Y-3.5531
X3.0433Y-4.7244
X3.0843Y-4.5677
X3.1252Y-4.1193
X3.126Y-4.1866
X3.1457Y-4.5039
X3.2087Y-3.8848
X3.2711Y-4.4638
X3.2717Y-4.7008
X3.3031Y-4.4409
X3.3031Y-4.6693
X3.437Y-4.5079
X3.7188Y-2.9375
X3.7188Y-3.2188
X3.8189Y-4.9173
X4.0312Y-3.625
X4.0312Y-3.937
X4.0312Y-4.375
X4.0312Y-5.1562
X4.0312Y-5.9375
X4.7677Y-4.7874
X4.9055Y-6.1142
X6.7188Y-2.9375
X6.7188Y-3.2188
X7.0938Y-3.625
X7.0938Y-3.9375
X7.2812Y-4.375
X7.5Y-5.9375
X7.6562Y-5.1562
X9.7188Y-2.9375
X9.7188Y-3.2188
X10.0938Y-3.625
X10.0938Y-3.9375
X10.2812Y-4.375
X10.6562Y-5.1875
X10.8438Y-5.9375
X12.7188Y-2.9375
X12.7188Y-3.2188
X12.9375Y-4.4688
X13.0938Y-3.625
X13.0938Y-4.0312
X13.4688Y-5.1875
X13.6562Y-5.9375
X13.6732Y-3.4488
T2
X2.653Y-5.6455
X2.653Y-5.7455
X2.653Y-5.8455
X2.753Y-5.6455
X2.753Y-5.7455
X2.753Y-5.8455
T3
X1.3701Y-2.811
X1.3701Y-3.561
X1.3713Y-4.3114
X1.3713Y-5.0613
X1.3713Y-5.8113
X1.5669Y-2.7913
X1.5669Y-3.5413
X1.5681Y-4.2917
X1.5682Y-5.0416
X1.5682Y-5.7916
X2.1201Y-2.811
X2.1201Y-3.561
X2.1213Y-4.311
X2.1213Y-5.0613
X2.1213Y-5.8113
X2.3169Y-2.7913
X2.3169Y-3.5413
X2.3181Y-4.2913
X2.3182Y-5.0416
X2.3182Y-5.7916
X3.2453Y-2.8113
X3.3391Y-4.3113
X3.3391Y-5.0613
X3.3391Y-5.8113
X3.4328Y-3.5613
X3.4328Y-4.6459
X3.4328Y-5.8113
X3.4422Y-2.7916
X3.5266Y-4.3113
X3.5359Y-4.2916
X3.5359Y-5.0416
X3.5359Y-5.7916
X3.6297Y-3.5416
X3.6297Y-4.6262
X3.6297Y-5.7916
X3.7141Y-5.0613
X3.7234Y-4.2916
X3.9109Y-5.0416
X3.9953Y-2.8113
X4.1828Y-5.0613
X4.1828Y-5.8113
X4.1922Y-2.7916
X4.2766Y-6.1459
X4.3703Y-3.5613
X4.3703Y-5.8113
X4.3797Y-5.0416
X4.3797Y-5.7916
X4.4734Y-6.1262
X4.5578Y-4.3113
X4.5578Y-5.8113
X4.5672Y-3.5416
X4.5672Y-5.7916
X4.7453Y-2.8113
X4.7547Y-4.2916
X4.7547Y-5.7916
X4.9328Y-5.0613
X4.9422Y-2.7916
X5.0266Y-5.8113
X5.1203Y-3.5613
X5.1297Y-5.0416
X5.2141Y-5.8113
X5.2234Y-5.7916
X5.3078Y-4.3113
X5.3078Y-5.8113
X5.3172Y-3.5416
X5.4109Y-5.7916
X5.4953Y-2.8113
X5.5047Y-4.2916
X5.5047Y-5.7916
X5.6828Y-5.0613
X5.6922Y-2.7916
X5.8703Y-3.5613
X5.8797Y-5.0416
X6.0578Y-4.3113
X6.0672Y-3.5416
X6.2453Y-2.8113
X6.2547Y-4.2916
X6.4328Y-5.0613
X6.4422Y-2.7916
X6.6203Y-3.5613
X6.6297Y-5.0416
X6.7141Y-5.8113
X6.8078Y-4.3113
X6.8172Y-3.5416
X6.9109Y-5.7916
X6.9953Y-2.8113
X7.0047Y-4.2916
X7.1828Y-5.0613
X7.1922Y-2.7916
X7.3703Y-3.5613
X7.3797Y-5.0416
X7.5578Y-4.3113
X7.5672Y-3.5416
X7.7453Y-2.8113
X7.7453Y-5.8113
X7.7453Y-5.8113
X7.7547Y-4.2916
X7.9328Y-5.0613
X7.9422Y-2.7916
X7.9422Y-5.7916
X7.9422Y-5.7916
X8.0266Y-5.8113
X8.1203Y-3.5613
X8.1297Y-5.0416
X8.2234Y-5.7916
X8.3078Y-4.3113
X8.3172Y-3.5416
X8.4953Y-2.8113
X8.5047Y-4.2916
X8.5891Y-5.8113
X8.6828Y-5.0613
X8.6922Y-2.7916
X8.7859Y-5.7916
X8.8703Y-3.5613
X8.8797Y-5.0416
X9.0578Y-4.3113
X9.0672Y-3.5416
X9.2453Y-2.8113
X9.2547Y-4.2916
X9.4328Y-5.0613
X9.4422Y-2.7916
X9.6203Y-3.5613
X9.6297Y-5.0416
X9.8078Y-4.3113
X9.8172Y-3.5416
X9.9953Y-2.8113
X10.0047Y-4.2916
X10.1828Y-5.0613
X10.1828Y-5.8113
X10.1922Y-2.7916
X10.3703Y-3.5613
X10.3797Y-5.0416
X10.3797Y-5.7916
X10.4641Y-5.8113
X10.5578Y-4.3113
X10.5672Y-3.5416
X10.6609Y-5.7916
X10.7453Y-2.8113
X10.7547Y-4.2916
X10.9328Y-5.0613
X10.9328Y-5.8113
X10.9422Y-2.7916
X11.1203Y-3.5613
X11.1203Y-5.8113
X11.1297Y-5.0416
X11.1297Y-5.7916
X11.3078Y-4.3113
X11.3078Y-5.8113
X11.3172Y-3.5416
X11.3172Y-5.7916
X11.4953Y-2.8113
X11.5047Y-4.2916
X11.5047Y-5.7916
X11.6828Y-5.0613
X11.6922Y-2.7916
X11.8703Y-3.5613
X11.8797Y-5.0416
X12.0578Y-4.3113
X12.0578Y-5.8113
X12.0672Y-3.5416
X12.1516Y-5.8113
X12.2453Y-2.8113
X12.2547Y-4.2916
X12.2547Y-5.7916
X12.3484Y-5.7916
X12.4422Y-2.7916
X12.6203Y-3.5613
X12.7141Y-5.0613
X12.8078Y-4.3113
X12.8172Y-3.5416
X12.9109Y-5.0416
X12.9953Y-2.811
X13.0047Y-4.2916
X13.1827Y-5.9985
X13.1922Y-2.7913
X13.2766Y-4.3113
X13.3703Y-2.8113
X13.3795Y-5.9788
X13.4734Y-4.2916
X13.4787Y-3.9953
X13.4984Y-4.1922
X13.5578Y-3.5613
X13.5672Y-2.7916
X13.6516Y-3.9363
X13.7453Y-2.811
X13.7547Y-3.5416
X13.8484Y-3.9166
X13.9075Y-3.9953
X13.9272Y-4.1922
X13.9327Y-5.2484
X13.9327Y-5.9985
X13.9422Y-2.7913
X14.1295Y-5.2287
X14.1295Y-5.9788
X14.6827Y-5.9985
X14.8697Y-2.8106
X14.8697Y-3.5606
X14.8697Y-4.3105
X14.8697Y-5.0605
X14.8795Y-5.9788
X15.0665Y-2.7909
X15.0665Y-3.5409
X15.0665Y-4.2908
X15.0665Y-5.0408
T0
M30
