G04 #@! TF.GenerationSoftware,KiCad,Pcbnew,(5.1.12)-1*
G04 #@! TF.CreationDate,2022-01-08T12:52:10-05:00*
G04 #@! TF.ProjectId,J-01-Alps,4a2d3031-2d41-46c7-9073-2e6b69636164,rev?*
G04 #@! TF.SameCoordinates,Original*
G04 #@! TF.FileFunction,Soldermask,Top*
G04 #@! TF.FilePolarity,Negative*
%FSLAX46Y46*%
G04 Gerber Fmt 4.6, Leading zero omitted, Abs format (unit mm)*
G04 Created by KiCad (PCBNEW (5.1.12)-1) date 2022-01-08 12:52:10*
%MOMM*%
%LPD*%
G01*
G04 APERTURE LIST*
%ADD10C,0.400000*%
%ADD11C,3.987800*%
%ADD12C,3.048000*%
G04 APERTURE END LIST*
D10*
X144566964Y-153169642D02*
X143852678Y-153169642D01*
X143852678Y-148883928D01*
X144566964Y-148883928D01*
X146566964Y-149169642D02*
X146566964Y-151312500D01*
X146424107Y-151741071D01*
X146138392Y-152026785D01*
X145709821Y-152169642D01*
X145424107Y-152169642D01*
X147709821Y-153169642D02*
X148424107Y-153169642D01*
X148424107Y-148883928D01*
X147709821Y-148883928D01*
X150566964Y-149169642D02*
X150852678Y-149169642D01*
X151138392Y-149312500D01*
X151281250Y-149455357D01*
X151424107Y-149741071D01*
X151566964Y-150312500D01*
X151566964Y-151026785D01*
X151424107Y-151598214D01*
X151281250Y-151883928D01*
X151138392Y-152026785D01*
X150852678Y-152169642D01*
X150566964Y-152169642D01*
X150281250Y-152026785D01*
X150138392Y-151883928D01*
X149995535Y-151598214D01*
X149852678Y-151026785D01*
X149852678Y-150312500D01*
X149995535Y-149741071D01*
X150138392Y-149455357D01*
X150281250Y-149312500D01*
X150566964Y-149169642D01*
X154424107Y-152169642D02*
X152709821Y-152169642D01*
X153566964Y-152169642D02*
X153566964Y-149169642D01*
X153281250Y-149598214D01*
X152995535Y-149883928D01*
X152709821Y-150026785D01*
X157852678Y-151312500D02*
X159281250Y-151312500D01*
X157566964Y-152169642D02*
X158566964Y-149169642D01*
X159566964Y-152169642D01*
X160995535Y-152169642D02*
X160709821Y-152026785D01*
X160566964Y-151741071D01*
X160566964Y-149169642D01*
X162138392Y-150169642D02*
X162138392Y-153169642D01*
X162138392Y-150312500D02*
X162424107Y-150169642D01*
X162995535Y-150169642D01*
X163281250Y-150312500D01*
X163424107Y-150455357D01*
X163566964Y-150741071D01*
X163566964Y-151598214D01*
X163424107Y-151883928D01*
X163281250Y-152026785D01*
X162995535Y-152169642D01*
X162424107Y-152169642D01*
X162138392Y-152026785D01*
X164709821Y-152026785D02*
X164995535Y-152169642D01*
X165566964Y-152169642D01*
X165852678Y-152026785D01*
X165995535Y-151741071D01*
X165995535Y-151598214D01*
X165852678Y-151312500D01*
X165566964Y-151169642D01*
X165138392Y-151169642D01*
X164852678Y-151026785D01*
X164709821Y-150741071D01*
X164709821Y-150598214D01*
X164852678Y-150312500D01*
X165138392Y-150169642D01*
X165566964Y-150169642D01*
X165852678Y-150312500D01*
D11*
G04 #@! TO.C,SW-SPACE6*
X246856250Y-143351250D03*
X151606250Y-143351250D03*
D12*
X246856250Y-158591250D03*
X151606250Y-158591250D03*
G04 #@! TD*
D11*
G04 #@! TO.C,Stab-275U1*
X208724500Y-143351250D03*
X232600500Y-143351250D03*
D12*
X208724500Y-158591250D03*
X232600500Y-158591250D03*
G04 #@! TD*
D11*
G04 #@! TO.C,Stab-225U2*
X161099500Y-143351250D03*
X184975500Y-143351250D03*
D12*
X161099500Y-158591250D03*
X184975500Y-158591250D03*
G04 #@! TD*
D11*
G04 #@! TO.C,Stab-225U3*
X108775500Y-140811250D03*
X84899500Y-140811250D03*
D12*
X108775500Y-125571250D03*
X84899500Y-125571250D03*
G04 #@! TD*
D11*
G04 #@! TO.C,Stab-7U1*
X256381250Y-143351250D03*
X142081250Y-143351250D03*
D12*
X256381250Y-158591250D03*
X142081250Y-158591250D03*
G04 #@! TD*
D11*
G04 #@! TO.C,Stab-625U1*
X256374900Y-143351250D03*
X156375100Y-143351250D03*
D12*
X256374900Y-158591250D03*
X156375100Y-158591250D03*
G04 #@! TD*
D11*
G04 #@! TO.C,Stab-2U1*
X354044250Y-83661250D03*
X330168250Y-83661250D03*
D12*
X354044250Y-68421250D03*
X330168250Y-68421250D03*
G04 #@! TD*
D11*
G04 #@! TO.C,Stab-225U1*
X351663000Y-121761250D03*
X327787000Y-121761250D03*
D12*
X351663000Y-106521250D03*
X327787000Y-106521250D03*
G04 #@! TD*
G04 #@! TO.C,SW-ISOEN1*
X357505000Y-92043250D03*
X357505000Y-115919250D03*
D11*
X342265000Y-92043250D03*
X342265000Y-115919250D03*
G04 #@! TD*
M02*
