G04 #@! TF.GenerationSoftware,KiCad,Pcbnew,(5.1.12)-1*
G04 #@! TF.CreationDate,2022-01-08T19:29:44-05:00*
G04 #@! TF.ProjectId,J-01-Alps,4a2d3031-2d41-46c7-9073-2e6b69636164,rev?*
G04 #@! TF.SameCoordinates,Original*
G04 #@! TF.FileFunction,Soldermask,Bot*
G04 #@! TF.FilePolarity,Negative*
%FSLAX46Y46*%
G04 Gerber Fmt 4.6, Leading zero omitted, Abs format (unit mm)*
G04 Created by KiCad (PCBNEW (5.1.12)-1) date 2022-01-08 19:29:44*
%MOMM*%
%LPD*%
G01*
G04 APERTURE LIST*
%ADD10C,0.400000*%
%ADD11C,2.250000*%
%ADD12R,5.150000X5.150000*%
%ADD13R,1.000000X0.700000*%
%ADD14R,0.600000X0.700000*%
%ADD15C,3.987800*%
%ADD16C,3.048000*%
%ADD17R,1.200000X0.900000*%
%ADD18R,2.100000X1.800000*%
%ADD19R,1.800000X1.100000*%
G04 APERTURE END LIST*
D10*
X164995535Y-153169642D02*
X165709821Y-153169642D01*
X165709821Y-148883928D01*
X164995535Y-148883928D01*
X162995535Y-149169642D02*
X162995535Y-151312500D01*
X163138392Y-151741071D01*
X163424107Y-152026785D01*
X163852678Y-152169642D01*
X164138392Y-152169642D01*
X161852678Y-153169642D02*
X161138392Y-153169642D01*
X161138392Y-148883928D01*
X161852678Y-148883928D01*
X158995535Y-149169642D02*
X158709821Y-149169642D01*
X158424107Y-149312500D01*
X158281250Y-149455357D01*
X158138392Y-149741071D01*
X157995535Y-150312500D01*
X157995535Y-151026785D01*
X158138392Y-151598214D01*
X158281250Y-151883928D01*
X158424107Y-152026785D01*
X158709821Y-152169642D01*
X158995535Y-152169642D01*
X159281250Y-152026785D01*
X159424107Y-151883928D01*
X159566964Y-151598214D01*
X159709821Y-151026785D01*
X159709821Y-150312500D01*
X159566964Y-149741071D01*
X159424107Y-149455357D01*
X159281250Y-149312500D01*
X158995535Y-149169642D01*
X155138392Y-152169642D02*
X156852678Y-152169642D01*
X155995535Y-152169642D02*
X155995535Y-149169642D01*
X156281250Y-149598214D01*
X156566964Y-149883928D01*
X156852678Y-150026785D01*
X151709821Y-151312500D02*
X150281250Y-151312500D01*
X151995535Y-152169642D02*
X150995535Y-149169642D01*
X149995535Y-152169642D01*
X148566964Y-152169642D02*
X148852678Y-152026785D01*
X148995535Y-151741071D01*
X148995535Y-149169642D01*
X147424107Y-150169642D02*
X147424107Y-153169642D01*
X147424107Y-150312500D02*
X147138392Y-150169642D01*
X146566964Y-150169642D01*
X146281250Y-150312500D01*
X146138392Y-150455357D01*
X145995535Y-150741071D01*
X145995535Y-151598214D01*
X146138392Y-151883928D01*
X146281250Y-152026785D01*
X146566964Y-152169642D01*
X147138392Y-152169642D01*
X147424107Y-152026785D01*
X144852678Y-152026785D02*
X144566964Y-152169642D01*
X143995535Y-152169642D01*
X143709821Y-152026785D01*
X143566964Y-151741071D01*
X143566964Y-151598214D01*
X143709821Y-151312500D01*
X143995535Y-151169642D01*
X144424107Y-151169642D01*
X144709821Y-151026785D01*
X144852678Y-150741071D01*
X144852678Y-150598214D01*
X144709821Y-150312500D01*
X144424107Y-150169642D01*
X143995535Y-150169642D01*
X143709821Y-150312500D01*
D11*
G04 #@! TO.C,SW-M6*
X53880000Y-109500000D03*
X58880000Y-109000000D03*
G04 #@! TD*
G04 #@! TO.C,SW-M5*
X34830000Y-109510000D03*
X39830000Y-109010000D03*
G04 #@! TD*
D12*
G04 #@! TO.C,U1*
X72618750Y-109537500D03*
G36*
G01*
X69993750Y-113350000D02*
X69993750Y-112600000D01*
G75*
G02*
X70056250Y-112537500I62500J0D01*
G01*
X70181250Y-112537500D01*
G75*
G02*
X70243750Y-112600000I0J-62500D01*
G01*
X70243750Y-113350000D01*
G75*
G02*
X70181250Y-113412500I-62500J0D01*
G01*
X70056250Y-113412500D01*
G75*
G02*
X69993750Y-113350000I0J62500D01*
G01*
G37*
G36*
G01*
X70493750Y-113350000D02*
X70493750Y-112600000D01*
G75*
G02*
X70556250Y-112537500I62500J0D01*
G01*
X70681250Y-112537500D01*
G75*
G02*
X70743750Y-112600000I0J-62500D01*
G01*
X70743750Y-113350000D01*
G75*
G02*
X70681250Y-113412500I-62500J0D01*
G01*
X70556250Y-113412500D01*
G75*
G02*
X70493750Y-113350000I0J62500D01*
G01*
G37*
G36*
G01*
X70993750Y-113350000D02*
X70993750Y-112600000D01*
G75*
G02*
X71056250Y-112537500I62500J0D01*
G01*
X71181250Y-112537500D01*
G75*
G02*
X71243750Y-112600000I0J-62500D01*
G01*
X71243750Y-113350000D01*
G75*
G02*
X71181250Y-113412500I-62500J0D01*
G01*
X71056250Y-113412500D01*
G75*
G02*
X70993750Y-113350000I0J62500D01*
G01*
G37*
G36*
G01*
X71493750Y-113350000D02*
X71493750Y-112600000D01*
G75*
G02*
X71556250Y-112537500I62500J0D01*
G01*
X71681250Y-112537500D01*
G75*
G02*
X71743750Y-112600000I0J-62500D01*
G01*
X71743750Y-113350000D01*
G75*
G02*
X71681250Y-113412500I-62500J0D01*
G01*
X71556250Y-113412500D01*
G75*
G02*
X71493750Y-113350000I0J62500D01*
G01*
G37*
G36*
G01*
X71993750Y-113350000D02*
X71993750Y-112600000D01*
G75*
G02*
X72056250Y-112537500I62500J0D01*
G01*
X72181250Y-112537500D01*
G75*
G02*
X72243750Y-112600000I0J-62500D01*
G01*
X72243750Y-113350000D01*
G75*
G02*
X72181250Y-113412500I-62500J0D01*
G01*
X72056250Y-113412500D01*
G75*
G02*
X71993750Y-113350000I0J62500D01*
G01*
G37*
G36*
G01*
X72493750Y-113350000D02*
X72493750Y-112600000D01*
G75*
G02*
X72556250Y-112537500I62500J0D01*
G01*
X72681250Y-112537500D01*
G75*
G02*
X72743750Y-112600000I0J-62500D01*
G01*
X72743750Y-113350000D01*
G75*
G02*
X72681250Y-113412500I-62500J0D01*
G01*
X72556250Y-113412500D01*
G75*
G02*
X72493750Y-113350000I0J62500D01*
G01*
G37*
G36*
G01*
X72993750Y-113350000D02*
X72993750Y-112600000D01*
G75*
G02*
X73056250Y-112537500I62500J0D01*
G01*
X73181250Y-112537500D01*
G75*
G02*
X73243750Y-112600000I0J-62500D01*
G01*
X73243750Y-113350000D01*
G75*
G02*
X73181250Y-113412500I-62500J0D01*
G01*
X73056250Y-113412500D01*
G75*
G02*
X72993750Y-113350000I0J62500D01*
G01*
G37*
G36*
G01*
X73493750Y-113350000D02*
X73493750Y-112600000D01*
G75*
G02*
X73556250Y-112537500I62500J0D01*
G01*
X73681250Y-112537500D01*
G75*
G02*
X73743750Y-112600000I0J-62500D01*
G01*
X73743750Y-113350000D01*
G75*
G02*
X73681250Y-113412500I-62500J0D01*
G01*
X73556250Y-113412500D01*
G75*
G02*
X73493750Y-113350000I0J62500D01*
G01*
G37*
G36*
G01*
X73993750Y-113350000D02*
X73993750Y-112600000D01*
G75*
G02*
X74056250Y-112537500I62500J0D01*
G01*
X74181250Y-112537500D01*
G75*
G02*
X74243750Y-112600000I0J-62500D01*
G01*
X74243750Y-113350000D01*
G75*
G02*
X74181250Y-113412500I-62500J0D01*
G01*
X74056250Y-113412500D01*
G75*
G02*
X73993750Y-113350000I0J62500D01*
G01*
G37*
G36*
G01*
X74493750Y-113350000D02*
X74493750Y-112600000D01*
G75*
G02*
X74556250Y-112537500I62500J0D01*
G01*
X74681250Y-112537500D01*
G75*
G02*
X74743750Y-112600000I0J-62500D01*
G01*
X74743750Y-113350000D01*
G75*
G02*
X74681250Y-113412500I-62500J0D01*
G01*
X74556250Y-113412500D01*
G75*
G02*
X74493750Y-113350000I0J62500D01*
G01*
G37*
G36*
G01*
X74993750Y-113350000D02*
X74993750Y-112600000D01*
G75*
G02*
X75056250Y-112537500I62500J0D01*
G01*
X75181250Y-112537500D01*
G75*
G02*
X75243750Y-112600000I0J-62500D01*
G01*
X75243750Y-113350000D01*
G75*
G02*
X75181250Y-113412500I-62500J0D01*
G01*
X75056250Y-113412500D01*
G75*
G02*
X74993750Y-113350000I0J62500D01*
G01*
G37*
G36*
G01*
X75618750Y-112100000D02*
X75618750Y-111975000D01*
G75*
G02*
X75681250Y-111912500I62500J0D01*
G01*
X76431250Y-111912500D01*
G75*
G02*
X76493750Y-111975000I0J-62500D01*
G01*
X76493750Y-112100000D01*
G75*
G02*
X76431250Y-112162500I-62500J0D01*
G01*
X75681250Y-112162500D01*
G75*
G02*
X75618750Y-112100000I0J62500D01*
G01*
G37*
G36*
G01*
X75618750Y-111600000D02*
X75618750Y-111475000D01*
G75*
G02*
X75681250Y-111412500I62500J0D01*
G01*
X76431250Y-111412500D01*
G75*
G02*
X76493750Y-111475000I0J-62500D01*
G01*
X76493750Y-111600000D01*
G75*
G02*
X76431250Y-111662500I-62500J0D01*
G01*
X75681250Y-111662500D01*
G75*
G02*
X75618750Y-111600000I0J62500D01*
G01*
G37*
G36*
G01*
X75618750Y-111100000D02*
X75618750Y-110975000D01*
G75*
G02*
X75681250Y-110912500I62500J0D01*
G01*
X76431250Y-110912500D01*
G75*
G02*
X76493750Y-110975000I0J-62500D01*
G01*
X76493750Y-111100000D01*
G75*
G02*
X76431250Y-111162500I-62500J0D01*
G01*
X75681250Y-111162500D01*
G75*
G02*
X75618750Y-111100000I0J62500D01*
G01*
G37*
G36*
G01*
X75618750Y-110600000D02*
X75618750Y-110475000D01*
G75*
G02*
X75681250Y-110412500I62500J0D01*
G01*
X76431250Y-110412500D01*
G75*
G02*
X76493750Y-110475000I0J-62500D01*
G01*
X76493750Y-110600000D01*
G75*
G02*
X76431250Y-110662500I-62500J0D01*
G01*
X75681250Y-110662500D01*
G75*
G02*
X75618750Y-110600000I0J62500D01*
G01*
G37*
G36*
G01*
X75618750Y-110100000D02*
X75618750Y-109975000D01*
G75*
G02*
X75681250Y-109912500I62500J0D01*
G01*
X76431250Y-109912500D01*
G75*
G02*
X76493750Y-109975000I0J-62500D01*
G01*
X76493750Y-110100000D01*
G75*
G02*
X76431250Y-110162500I-62500J0D01*
G01*
X75681250Y-110162500D01*
G75*
G02*
X75618750Y-110100000I0J62500D01*
G01*
G37*
G36*
G01*
X75618750Y-109600000D02*
X75618750Y-109475000D01*
G75*
G02*
X75681250Y-109412500I62500J0D01*
G01*
X76431250Y-109412500D01*
G75*
G02*
X76493750Y-109475000I0J-62500D01*
G01*
X76493750Y-109600000D01*
G75*
G02*
X76431250Y-109662500I-62500J0D01*
G01*
X75681250Y-109662500D01*
G75*
G02*
X75618750Y-109600000I0J62500D01*
G01*
G37*
G36*
G01*
X75618750Y-109100000D02*
X75618750Y-108975000D01*
G75*
G02*
X75681250Y-108912500I62500J0D01*
G01*
X76431250Y-108912500D01*
G75*
G02*
X76493750Y-108975000I0J-62500D01*
G01*
X76493750Y-109100000D01*
G75*
G02*
X76431250Y-109162500I-62500J0D01*
G01*
X75681250Y-109162500D01*
G75*
G02*
X75618750Y-109100000I0J62500D01*
G01*
G37*
G36*
G01*
X75618750Y-108600000D02*
X75618750Y-108475000D01*
G75*
G02*
X75681250Y-108412500I62500J0D01*
G01*
X76431250Y-108412500D01*
G75*
G02*
X76493750Y-108475000I0J-62500D01*
G01*
X76493750Y-108600000D01*
G75*
G02*
X76431250Y-108662500I-62500J0D01*
G01*
X75681250Y-108662500D01*
G75*
G02*
X75618750Y-108600000I0J62500D01*
G01*
G37*
G36*
G01*
X75618750Y-108100000D02*
X75618750Y-107975000D01*
G75*
G02*
X75681250Y-107912500I62500J0D01*
G01*
X76431250Y-107912500D01*
G75*
G02*
X76493750Y-107975000I0J-62500D01*
G01*
X76493750Y-108100000D01*
G75*
G02*
X76431250Y-108162500I-62500J0D01*
G01*
X75681250Y-108162500D01*
G75*
G02*
X75618750Y-108100000I0J62500D01*
G01*
G37*
G36*
G01*
X75618750Y-107600000D02*
X75618750Y-107475000D01*
G75*
G02*
X75681250Y-107412500I62500J0D01*
G01*
X76431250Y-107412500D01*
G75*
G02*
X76493750Y-107475000I0J-62500D01*
G01*
X76493750Y-107600000D01*
G75*
G02*
X76431250Y-107662500I-62500J0D01*
G01*
X75681250Y-107662500D01*
G75*
G02*
X75618750Y-107600000I0J62500D01*
G01*
G37*
G36*
G01*
X75618750Y-107100000D02*
X75618750Y-106975000D01*
G75*
G02*
X75681250Y-106912500I62500J0D01*
G01*
X76431250Y-106912500D01*
G75*
G02*
X76493750Y-106975000I0J-62500D01*
G01*
X76493750Y-107100000D01*
G75*
G02*
X76431250Y-107162500I-62500J0D01*
G01*
X75681250Y-107162500D01*
G75*
G02*
X75618750Y-107100000I0J62500D01*
G01*
G37*
G36*
G01*
X74993750Y-106475000D02*
X74993750Y-105725000D01*
G75*
G02*
X75056250Y-105662500I62500J0D01*
G01*
X75181250Y-105662500D01*
G75*
G02*
X75243750Y-105725000I0J-62500D01*
G01*
X75243750Y-106475000D01*
G75*
G02*
X75181250Y-106537500I-62500J0D01*
G01*
X75056250Y-106537500D01*
G75*
G02*
X74993750Y-106475000I0J62500D01*
G01*
G37*
G36*
G01*
X74493750Y-106475000D02*
X74493750Y-105725000D01*
G75*
G02*
X74556250Y-105662500I62500J0D01*
G01*
X74681250Y-105662500D01*
G75*
G02*
X74743750Y-105725000I0J-62500D01*
G01*
X74743750Y-106475000D01*
G75*
G02*
X74681250Y-106537500I-62500J0D01*
G01*
X74556250Y-106537500D01*
G75*
G02*
X74493750Y-106475000I0J62500D01*
G01*
G37*
G36*
G01*
X73993750Y-106475000D02*
X73993750Y-105725000D01*
G75*
G02*
X74056250Y-105662500I62500J0D01*
G01*
X74181250Y-105662500D01*
G75*
G02*
X74243750Y-105725000I0J-62500D01*
G01*
X74243750Y-106475000D01*
G75*
G02*
X74181250Y-106537500I-62500J0D01*
G01*
X74056250Y-106537500D01*
G75*
G02*
X73993750Y-106475000I0J62500D01*
G01*
G37*
G36*
G01*
X73493750Y-106475000D02*
X73493750Y-105725000D01*
G75*
G02*
X73556250Y-105662500I62500J0D01*
G01*
X73681250Y-105662500D01*
G75*
G02*
X73743750Y-105725000I0J-62500D01*
G01*
X73743750Y-106475000D01*
G75*
G02*
X73681250Y-106537500I-62500J0D01*
G01*
X73556250Y-106537500D01*
G75*
G02*
X73493750Y-106475000I0J62500D01*
G01*
G37*
G36*
G01*
X72993750Y-106475000D02*
X72993750Y-105725000D01*
G75*
G02*
X73056250Y-105662500I62500J0D01*
G01*
X73181250Y-105662500D01*
G75*
G02*
X73243750Y-105725000I0J-62500D01*
G01*
X73243750Y-106475000D01*
G75*
G02*
X73181250Y-106537500I-62500J0D01*
G01*
X73056250Y-106537500D01*
G75*
G02*
X72993750Y-106475000I0J62500D01*
G01*
G37*
G36*
G01*
X72493750Y-106475000D02*
X72493750Y-105725000D01*
G75*
G02*
X72556250Y-105662500I62500J0D01*
G01*
X72681250Y-105662500D01*
G75*
G02*
X72743750Y-105725000I0J-62500D01*
G01*
X72743750Y-106475000D01*
G75*
G02*
X72681250Y-106537500I-62500J0D01*
G01*
X72556250Y-106537500D01*
G75*
G02*
X72493750Y-106475000I0J62500D01*
G01*
G37*
G36*
G01*
X71993750Y-106475000D02*
X71993750Y-105725000D01*
G75*
G02*
X72056250Y-105662500I62500J0D01*
G01*
X72181250Y-105662500D01*
G75*
G02*
X72243750Y-105725000I0J-62500D01*
G01*
X72243750Y-106475000D01*
G75*
G02*
X72181250Y-106537500I-62500J0D01*
G01*
X72056250Y-106537500D01*
G75*
G02*
X71993750Y-106475000I0J62500D01*
G01*
G37*
G36*
G01*
X71493750Y-106475000D02*
X71493750Y-105725000D01*
G75*
G02*
X71556250Y-105662500I62500J0D01*
G01*
X71681250Y-105662500D01*
G75*
G02*
X71743750Y-105725000I0J-62500D01*
G01*
X71743750Y-106475000D01*
G75*
G02*
X71681250Y-106537500I-62500J0D01*
G01*
X71556250Y-106537500D01*
G75*
G02*
X71493750Y-106475000I0J62500D01*
G01*
G37*
G36*
G01*
X70993750Y-106475000D02*
X70993750Y-105725000D01*
G75*
G02*
X71056250Y-105662500I62500J0D01*
G01*
X71181250Y-105662500D01*
G75*
G02*
X71243750Y-105725000I0J-62500D01*
G01*
X71243750Y-106475000D01*
G75*
G02*
X71181250Y-106537500I-62500J0D01*
G01*
X71056250Y-106537500D01*
G75*
G02*
X70993750Y-106475000I0J62500D01*
G01*
G37*
G36*
G01*
X70493750Y-106475000D02*
X70493750Y-105725000D01*
G75*
G02*
X70556250Y-105662500I62500J0D01*
G01*
X70681250Y-105662500D01*
G75*
G02*
X70743750Y-105725000I0J-62500D01*
G01*
X70743750Y-106475000D01*
G75*
G02*
X70681250Y-106537500I-62500J0D01*
G01*
X70556250Y-106537500D01*
G75*
G02*
X70493750Y-106475000I0J62500D01*
G01*
G37*
G36*
G01*
X69993750Y-106475000D02*
X69993750Y-105725000D01*
G75*
G02*
X70056250Y-105662500I62500J0D01*
G01*
X70181250Y-105662500D01*
G75*
G02*
X70243750Y-105725000I0J-62500D01*
G01*
X70243750Y-106475000D01*
G75*
G02*
X70181250Y-106537500I-62500J0D01*
G01*
X70056250Y-106537500D01*
G75*
G02*
X69993750Y-106475000I0J62500D01*
G01*
G37*
G36*
G01*
X68743750Y-107100000D02*
X68743750Y-106975000D01*
G75*
G02*
X68806250Y-106912500I62500J0D01*
G01*
X69556250Y-106912500D01*
G75*
G02*
X69618750Y-106975000I0J-62500D01*
G01*
X69618750Y-107100000D01*
G75*
G02*
X69556250Y-107162500I-62500J0D01*
G01*
X68806250Y-107162500D01*
G75*
G02*
X68743750Y-107100000I0J62500D01*
G01*
G37*
G36*
G01*
X68743750Y-107600000D02*
X68743750Y-107475000D01*
G75*
G02*
X68806250Y-107412500I62500J0D01*
G01*
X69556250Y-107412500D01*
G75*
G02*
X69618750Y-107475000I0J-62500D01*
G01*
X69618750Y-107600000D01*
G75*
G02*
X69556250Y-107662500I-62500J0D01*
G01*
X68806250Y-107662500D01*
G75*
G02*
X68743750Y-107600000I0J62500D01*
G01*
G37*
G36*
G01*
X68743750Y-108100000D02*
X68743750Y-107975000D01*
G75*
G02*
X68806250Y-107912500I62500J0D01*
G01*
X69556250Y-107912500D01*
G75*
G02*
X69618750Y-107975000I0J-62500D01*
G01*
X69618750Y-108100000D01*
G75*
G02*
X69556250Y-108162500I-62500J0D01*
G01*
X68806250Y-108162500D01*
G75*
G02*
X68743750Y-108100000I0J62500D01*
G01*
G37*
G36*
G01*
X68743750Y-108600000D02*
X68743750Y-108475000D01*
G75*
G02*
X68806250Y-108412500I62500J0D01*
G01*
X69556250Y-108412500D01*
G75*
G02*
X69618750Y-108475000I0J-62500D01*
G01*
X69618750Y-108600000D01*
G75*
G02*
X69556250Y-108662500I-62500J0D01*
G01*
X68806250Y-108662500D01*
G75*
G02*
X68743750Y-108600000I0J62500D01*
G01*
G37*
G36*
G01*
X68743750Y-109100000D02*
X68743750Y-108975000D01*
G75*
G02*
X68806250Y-108912500I62500J0D01*
G01*
X69556250Y-108912500D01*
G75*
G02*
X69618750Y-108975000I0J-62500D01*
G01*
X69618750Y-109100000D01*
G75*
G02*
X69556250Y-109162500I-62500J0D01*
G01*
X68806250Y-109162500D01*
G75*
G02*
X68743750Y-109100000I0J62500D01*
G01*
G37*
G36*
G01*
X68743750Y-109600000D02*
X68743750Y-109475000D01*
G75*
G02*
X68806250Y-109412500I62500J0D01*
G01*
X69556250Y-109412500D01*
G75*
G02*
X69618750Y-109475000I0J-62500D01*
G01*
X69618750Y-109600000D01*
G75*
G02*
X69556250Y-109662500I-62500J0D01*
G01*
X68806250Y-109662500D01*
G75*
G02*
X68743750Y-109600000I0J62500D01*
G01*
G37*
G36*
G01*
X68743750Y-110100000D02*
X68743750Y-109975000D01*
G75*
G02*
X68806250Y-109912500I62500J0D01*
G01*
X69556250Y-109912500D01*
G75*
G02*
X69618750Y-109975000I0J-62500D01*
G01*
X69618750Y-110100000D01*
G75*
G02*
X69556250Y-110162500I-62500J0D01*
G01*
X68806250Y-110162500D01*
G75*
G02*
X68743750Y-110100000I0J62500D01*
G01*
G37*
G36*
G01*
X68743750Y-110600000D02*
X68743750Y-110475000D01*
G75*
G02*
X68806250Y-110412500I62500J0D01*
G01*
X69556250Y-110412500D01*
G75*
G02*
X69618750Y-110475000I0J-62500D01*
G01*
X69618750Y-110600000D01*
G75*
G02*
X69556250Y-110662500I-62500J0D01*
G01*
X68806250Y-110662500D01*
G75*
G02*
X68743750Y-110600000I0J62500D01*
G01*
G37*
G36*
G01*
X68743750Y-111100000D02*
X68743750Y-110975000D01*
G75*
G02*
X68806250Y-110912500I62500J0D01*
G01*
X69556250Y-110912500D01*
G75*
G02*
X69618750Y-110975000I0J-62500D01*
G01*
X69618750Y-111100000D01*
G75*
G02*
X69556250Y-111162500I-62500J0D01*
G01*
X68806250Y-111162500D01*
G75*
G02*
X68743750Y-111100000I0J62500D01*
G01*
G37*
G36*
G01*
X68743750Y-111600000D02*
X68743750Y-111475000D01*
G75*
G02*
X68806250Y-111412500I62500J0D01*
G01*
X69556250Y-111412500D01*
G75*
G02*
X69618750Y-111475000I0J-62500D01*
G01*
X69618750Y-111600000D01*
G75*
G02*
X69556250Y-111662500I-62500J0D01*
G01*
X68806250Y-111662500D01*
G75*
G02*
X68743750Y-111600000I0J62500D01*
G01*
G37*
G36*
G01*
X68743750Y-112100000D02*
X68743750Y-111975000D01*
G75*
G02*
X68806250Y-111912500I62500J0D01*
G01*
X69556250Y-111912500D01*
G75*
G02*
X69618750Y-111975000I0J-62500D01*
G01*
X69618750Y-112100000D01*
G75*
G02*
X69556250Y-112162500I-62500J0D01*
G01*
X68806250Y-112162500D01*
G75*
G02*
X68743750Y-112100000I0J62500D01*
G01*
G37*
G04 #@! TD*
D11*
G04 #@! TO.C,SW-M1*
X34800000Y-71400000D03*
X39800000Y-70900000D03*
G04 #@! TD*
G04 #@! TO.C,SW-DEL1*
X377690000Y-71410000D03*
X382690000Y-70910000D03*
G04 #@! TD*
G04 #@! TO.C,SW-RIGHT1*
X372900000Y-152481250D03*
X377900000Y-151981250D03*
G04 #@! TD*
G04 #@! TO.C,SW-M9*
X34831250Y-147606250D03*
X39831250Y-147106250D03*
G04 #@! TD*
G04 #@! TO.C,SW-M2*
X53850000Y-71400000D03*
X58850000Y-70900000D03*
G04 #@! TD*
G04 #@! TO.C,SW-ESC1*
X82431250Y-71406250D03*
X87431250Y-70906250D03*
G04 #@! TD*
G04 #@! TO.C,SW-`1*
X349131250Y-71400000D03*
X354131250Y-70900000D03*
G04 #@! TD*
G04 #@! TO.C,SW-SPACE225*
X170537500Y-147606250D03*
X175537500Y-147106250D03*
G04 #@! TD*
G04 #@! TO.C,SW-END1*
X377690000Y-128556250D03*
X382690000Y-128056250D03*
G04 #@! TD*
G04 #@! TO.C,SW-RSHFT1*
X322937500Y-128556250D03*
X327937500Y-128056250D03*
G04 #@! TD*
G04 #@! TO.C,SW-PGDN1*
X377690000Y-109506250D03*
X382690000Y-109006250D03*
G04 #@! TD*
G04 #@! TO.C,SW-\u005C2*
X344368750Y-90456250D03*
X349368750Y-89956250D03*
G04 #@! TD*
G04 #@! TO.C,SW-PGUP1*
X377690000Y-90460000D03*
X382690000Y-89960000D03*
G04 #@! TD*
G04 #@! TO.C,SW-DOWN1*
X353850000Y-152481250D03*
X358850000Y-151981250D03*
G04 #@! TD*
G04 #@! TO.C,SW-LEFT1*
X334800000Y-152481250D03*
X339800000Y-151981250D03*
G04 #@! TD*
G04 #@! TO.C,SW-RCTRL2*
X308650000Y-147606250D03*
X313650000Y-147106250D03*
G04 #@! TD*
G04 #@! TO.C,SW-M8*
X53881250Y-128556250D03*
X58881250Y-128056250D03*
G04 #@! TD*
G04 #@! TO.C,SW-LSHIFT2*
X84812500Y-128556250D03*
X89812500Y-128056250D03*
G04 #@! TD*
G04 #@! TO.C,SW-M4*
X53850000Y-90450000D03*
X58850000Y-89950000D03*
G04 #@! TD*
G04 #@! TO.C,SW-TAB1*
X87193750Y-90456250D03*
X92193750Y-89956250D03*
G04 #@! TD*
G04 #@! TO.C,SW-LCTRL2*
X87193750Y-147606250D03*
X92193750Y-147106250D03*
G04 #@! TD*
G04 #@! TO.C,SW-LCTRL1*
X84812500Y-147606250D03*
X89812500Y-147106250D03*
G04 #@! TD*
G04 #@! TO.C,SW-M10*
X53881250Y-147606250D03*
X58881250Y-147106250D03*
G04 #@! TD*
G04 #@! TO.C,SW-9*
X253881250Y-71406250D03*
X258881250Y-70906250D03*
G04 #@! TD*
G04 #@! TO.C,SW-UP1*
X353850000Y-133430000D03*
X358850000Y-132930000D03*
G04 #@! TD*
D13*
G04 #@! TO.C,U4*
X69493750Y-84837500D03*
D14*
X69693750Y-82837500D03*
X67793750Y-84837500D03*
X67793750Y-82837500D03*
G04 #@! TD*
D11*
G04 #@! TO.C,SW-L1*
X268168750Y-109506250D03*
X273168750Y-109006250D03*
G04 #@! TD*
G04 #@! TO.C,C6*
G36*
G01*
X75637500Y-115762500D02*
X75637500Y-116237500D01*
G75*
G02*
X75400000Y-116475000I-237500J0D01*
G01*
X74800000Y-116475000D01*
G75*
G02*
X74562500Y-116237500I0J237500D01*
G01*
X74562500Y-115762500D01*
G75*
G02*
X74800000Y-115525000I237500J0D01*
G01*
X75400000Y-115525000D01*
G75*
G02*
X75637500Y-115762500I0J-237500D01*
G01*
G37*
G36*
G01*
X77362500Y-115762500D02*
X77362500Y-116237500D01*
G75*
G02*
X77125000Y-116475000I-237500J0D01*
G01*
X76525000Y-116475000D01*
G75*
G02*
X76287500Y-116237500I0J237500D01*
G01*
X76287500Y-115762500D01*
G75*
G02*
X76525000Y-115525000I237500J0D01*
G01*
X77125000Y-115525000D01*
G75*
G02*
X77362500Y-115762500I0J-237500D01*
G01*
G37*
G04 #@! TD*
G04 #@! TO.C,SW-RALT3*
X258643750Y-147606250D03*
X263643750Y-147106250D03*
G04 #@! TD*
G04 #@! TO.C,SW-SPACE625*
X203875000Y-147606250D03*
X208875000Y-147106250D03*
G04 #@! TD*
G04 #@! TO.C,SW-SPACE7*
X196731250Y-147606250D03*
G36*
G01*
X201652774Y-148228510D02*
X201652774Y-148228510D01*
G75*
G02*
X200608990Y-147027774I78476J1122260D01*
G01*
X200608990Y-147027774D01*
G75*
G02*
X201809726Y-145983990I1122260J-78476D01*
G01*
X201809726Y-145983990D01*
G75*
G02*
X202853510Y-147184726I-78476J-1122260D01*
G01*
X202853510Y-147184726D01*
G75*
G02*
X201652774Y-148228510I-1122260J78476D01*
G01*
G37*
G04 #@! TD*
G04 #@! TO.C,SW-LALT3*
X127675000Y-147606250D03*
X132675000Y-147106250D03*
G04 #@! TD*
G04 #@! TO.C,SW-LALT2*
X115768750Y-147606250D03*
X120768750Y-147106250D03*
G04 #@! TD*
G04 #@! TO.C,SW-LWIN2*
X106243750Y-147606250D03*
X111243750Y-147106250D03*
G04 #@! TD*
G04 #@! TO.C,SW-MENU2*
X282456250Y-147606250D03*
X287456250Y-147106250D03*
G04 #@! TD*
D15*
G04 #@! TO.C,SW-SPACE6*
X246856250Y-143351250D03*
X151606250Y-143351250D03*
D16*
X246856250Y-158591250D03*
X151606250Y-158591250D03*
D11*
X196731250Y-147606250D03*
X201731250Y-147106250D03*
G04 #@! TD*
D15*
G04 #@! TO.C,Stab-275U1*
X208724500Y-143351250D03*
X232600500Y-143351250D03*
D16*
X208724500Y-158591250D03*
X232600500Y-158591250D03*
G04 #@! TD*
D15*
G04 #@! TO.C,Stab-225U2*
X161099500Y-143351250D03*
X184975500Y-143351250D03*
D16*
X161099500Y-158591250D03*
X184975500Y-158591250D03*
G04 #@! TD*
D11*
G04 #@! TO.C,SW-LWIN3*
X111006250Y-147606250D03*
X116006250Y-147106250D03*
G04 #@! TD*
G04 #@! TO.C,SW-LALT4*
X134818750Y-147606250D03*
X139818750Y-147106250D03*
G04 #@! TD*
G04 #@! TO.C,SW-SPACE275*
X218162500Y-147606250D03*
X223162500Y-147106250D03*
G04 #@! TD*
G04 #@! TO.C,SW-RALT2*
X265787500Y-147606250D03*
X270787500Y-147106250D03*
G04 #@! TD*
G04 #@! TO.C,SW-MENU1*
X287218750Y-147606250D03*
X292218750Y-147106250D03*
G04 #@! TD*
D17*
G04 #@! TO.C,D77*
X270750000Y-152400000D03*
X270750000Y-155700000D03*
G04 #@! TD*
G04 #@! TO.C,D75*
X175500000Y-152400000D03*
X175500000Y-155700000D03*
G04 #@! TD*
D11*
G04 #@! TO.C,SW-CAPS1*
X89575000Y-109506250D03*
X94575000Y-109006250D03*
G04 #@! TD*
D15*
G04 #@! TO.C,Stab-225U3*
X108775500Y-140811250D03*
X84899500Y-140811250D03*
D16*
X108775500Y-125571250D03*
X84899500Y-125571250D03*
G04 #@! TD*
D11*
G04 #@! TO.C,SW-3800CAPS1*
X87193750Y-109506250D03*
X92193750Y-109006250D03*
G04 #@! TD*
D15*
G04 #@! TO.C,Stab-7U1*
X256381250Y-143351250D03*
X142081250Y-143351250D03*
D16*
X256381250Y-158591250D03*
X142081250Y-158591250D03*
G04 #@! TD*
D15*
G04 #@! TO.C,Stab-625U1*
X256374900Y-143351250D03*
X156375100Y-143351250D03*
D16*
X256374900Y-158591250D03*
X156375100Y-158591250D03*
G04 #@! TD*
D15*
G04 #@! TO.C,Stab-2U1*
X354044250Y-83661250D03*
X330168250Y-83661250D03*
D16*
X354044250Y-68421250D03*
X330168250Y-68421250D03*
G04 #@! TD*
D15*
G04 #@! TO.C,Stab-225U1*
X351663000Y-121761250D03*
X327787000Y-121761250D03*
D16*
X351663000Y-106521250D03*
X327787000Y-106521250D03*
G04 #@! TD*
D11*
G04 #@! TO.C,SW-ISOEN1*
X353750000Y-106481250D03*
X353250000Y-101481250D03*
D16*
X357505000Y-92043250D03*
X357505000Y-115919250D03*
D15*
X342265000Y-92043250D03*
X342265000Y-115919250D03*
G04 #@! TD*
D11*
G04 #@! TO.C,SW-Z1*
X125293750Y-128556250D03*
X130293750Y-128056250D03*
G04 #@! TD*
G04 #@! TO.C,SW-Y1*
X206256250Y-90456250D03*
X211256250Y-89956250D03*
G04 #@! TD*
G04 #@! TO.C,SW-X1*
X144343750Y-128556250D03*
X149343750Y-128056250D03*
G04 #@! TD*
G04 #@! TO.C,SW-W1*
X130056250Y-90456250D03*
X135056250Y-89956250D03*
G04 #@! TD*
G04 #@! TO.C,SW-V1*
X182443750Y-128556250D03*
X187443750Y-128056250D03*
G04 #@! TD*
G04 #@! TO.C,SW-U1*
X225306250Y-90456250D03*
X230306250Y-89956250D03*
G04 #@! TD*
G04 #@! TO.C,SW-T1*
X187206250Y-90456250D03*
X192206250Y-89956250D03*
G04 #@! TD*
G04 #@! TO.C,SW-STEPCAPS1*
X84812500Y-109506250D03*
X89812500Y-109006250D03*
G04 #@! TD*
G04 #@! TO.C,SW-S1*
X134818750Y-109506250D03*
X139818750Y-109006250D03*
G04 #@! TD*
G04 #@! TO.C,SW-RCTRL1*
X306268750Y-147606250D03*
X311268750Y-147106250D03*
G04 #@! TD*
G04 #@! TO.C,SW-RALT1*
X277693750Y-147606250D03*
X282693750Y-147106250D03*
G04 #@! TD*
G04 #@! TO.C,SW-R1*
X168156250Y-90456250D03*
X173156250Y-89956250D03*
G04 #@! TD*
G04 #@! TO.C,SW-Q1*
X111006250Y-90456250D03*
X116006250Y-89956250D03*
G04 #@! TD*
G04 #@! TO.C,SW-P1*
X282456250Y-90456250D03*
X287456250Y-89956250D03*
G04 #@! TD*
G04 #@! TO.C,SW-O1*
X263406250Y-90456250D03*
X268406250Y-89956250D03*
G04 #@! TD*
G04 #@! TO.C,SW-N1*
X220543750Y-128556250D03*
X225543750Y-128056250D03*
G04 #@! TD*
G04 #@! TO.C,SW-M11*
X239593750Y-128556250D03*
X244593750Y-128056250D03*
G04 #@! TD*
G04 #@! TO.C,SW-M7*
X34831250Y-128556250D03*
X39831250Y-128056250D03*
G04 #@! TD*
G04 #@! TO.C,SW-M3*
X34800000Y-90450000D03*
X39800000Y-89950000D03*
G04 #@! TD*
G04 #@! TO.C,SW-LWIN1*
X108625000Y-147606250D03*
X113625000Y-147106250D03*
G04 #@! TD*
G04 #@! TO.C,SW-LSHIFT1*
X94337500Y-128556250D03*
X99337500Y-128056250D03*
G04 #@! TD*
G04 #@! TO.C,SW-LALT1*
X132437500Y-147606250D03*
X137437500Y-147106250D03*
G04 #@! TD*
G04 #@! TO.C,SW-K1*
X249118750Y-109506250D03*
X254118750Y-109006250D03*
G04 #@! TD*
G04 #@! TO.C,SW-J1*
X230068750Y-109506250D03*
X235068750Y-109006250D03*
G04 #@! TD*
G04 #@! TO.C,SW-I1*
X244356250Y-90456250D03*
X249356250Y-89956250D03*
G04 #@! TD*
G04 #@! TO.C,SW-H1*
X211018750Y-109506250D03*
X216018750Y-109006250D03*
G04 #@! TD*
G04 #@! TO.C,SW-G1*
X191968750Y-109506250D03*
X196968750Y-109006250D03*
G04 #@! TD*
G04 #@! TO.C,SW-F1*
X172918750Y-109506250D03*
X177918750Y-109006250D03*
G04 #@! TD*
G04 #@! TO.C,SW-E1*
X149106250Y-90456250D03*
X154106250Y-89956250D03*
G04 #@! TD*
G04 #@! TO.C,SW-D1*
X153868750Y-109506250D03*
X158868750Y-109006250D03*
G04 #@! TD*
G04 #@! TO.C,SW-C1*
X163393750Y-128556250D03*
X168393750Y-128056250D03*
G04 #@! TD*
G04 #@! TO.C,SW-BKSP1*
X339606250Y-71406250D03*
X344606250Y-70906250D03*
G04 #@! TD*
G04 #@! TO.C,SW-B1*
X201493750Y-128556250D03*
X206493750Y-128056250D03*
G04 #@! TD*
G04 #@! TO.C,SW-ANSIEN1*
X337225000Y-109506250D03*
X342225000Y-109006250D03*
G04 #@! TD*
G04 #@! TO.C,SW-A1*
X115768750Y-109506250D03*
X120768750Y-109006250D03*
G04 #@! TD*
G04 #@! TO.C,SW-]1*
X320556250Y-90456250D03*
X325556250Y-89956250D03*
G04 #@! TD*
G04 #@! TO.C,SW-\u005C3*
X106243750Y-128556250D03*
X111243750Y-128056250D03*
G04 #@! TD*
G04 #@! TO.C,SW-\u005C1*
X330081250Y-71400000D03*
X335081250Y-70900000D03*
G04 #@! TD*
G04 #@! TO.C,SW-[1*
X301506250Y-90456250D03*
X306506250Y-89956250D03*
G04 #@! TD*
G04 #@! TO.C,SW-=1*
X311031250Y-71406250D03*
X316031250Y-70906250D03*
G04 #@! TD*
G04 #@! TO.C,SW-;1*
X287218750Y-109506250D03*
X292218750Y-109006250D03*
G04 #@! TD*
G04 #@! TO.C,SW-/1*
X296743750Y-128556250D03*
X301743750Y-128056250D03*
G04 #@! TD*
G04 #@! TO.C,SW--1*
X291981250Y-71406250D03*
X296981250Y-70906250D03*
G04 #@! TD*
G04 #@! TO.C,SW-'1*
X306268750Y-109506250D03*
X311268750Y-109006250D03*
G04 #@! TD*
G04 #@! TO.C,SW-#1*
X325318750Y-109506250D03*
X330318750Y-109006250D03*
G04 #@! TD*
G04 #@! TO.C,SW-8*
X234831250Y-71406250D03*
X239831250Y-70906250D03*
G04 #@! TD*
G04 #@! TO.C,SW-7*
X215781250Y-71406250D03*
X220781250Y-70906250D03*
G04 #@! TD*
G04 #@! TO.C,SW-6*
X196731250Y-71406250D03*
X201731250Y-70906250D03*
G04 #@! TD*
G04 #@! TO.C,SW-5*
X177681250Y-71406250D03*
X182681250Y-70906250D03*
G04 #@! TD*
G04 #@! TO.C,SW-4*
X158631250Y-71406250D03*
X163631250Y-70906250D03*
G04 #@! TD*
G04 #@! TO.C,SW-3*
X139581250Y-71406250D03*
X144581250Y-70906250D03*
G04 #@! TD*
G04 #@! TO.C,SW-2*
X120531250Y-71406250D03*
X125531250Y-70906250D03*
G04 #@! TD*
G04 #@! TO.C,SW-1*
X101481250Y-71406250D03*
X106481250Y-70906250D03*
G04 #@! TD*
G04 #@! TO.C,SW-0*
X272931250Y-71406250D03*
X277931250Y-70906250D03*
G04 #@! TD*
G04 #@! TO.C,SW-\u002C1*
X258643750Y-128556250D03*
X263643750Y-128056250D03*
G04 #@! TD*
G04 #@! TO.C,SW-.1*
X277693750Y-128556250D03*
X282693750Y-128056250D03*
G04 #@! TD*
D18*
G04 #@! TO.C,Y1*
X74512500Y-94468750D03*
X71612500Y-94468750D03*
X71612500Y-96768750D03*
X74512500Y-96768750D03*
G04 #@! TD*
D19*
G04 #@! TO.C,SW1*
X70718750Y-129118750D03*
X76918750Y-132818750D03*
X70718750Y-132818750D03*
X76918750Y-129118750D03*
G04 #@! TD*
G04 #@! TO.C,RC3*
G36*
G01*
X71075000Y-134512500D02*
X71075000Y-134987500D01*
G75*
G02*
X70837500Y-135225000I-237500J0D01*
G01*
X70337500Y-135225000D01*
G75*
G02*
X70100000Y-134987500I0J237500D01*
G01*
X70100000Y-134512500D01*
G75*
G02*
X70337500Y-134275000I237500J0D01*
G01*
X70837500Y-134275000D01*
G75*
G02*
X71075000Y-134512500I0J-237500D01*
G01*
G37*
G36*
G01*
X72900000Y-134512500D02*
X72900000Y-134987500D01*
G75*
G02*
X72662500Y-135225000I-237500J0D01*
G01*
X72162500Y-135225000D01*
G75*
G02*
X71925000Y-134987500I0J237500D01*
G01*
X71925000Y-134512500D01*
G75*
G02*
X72162500Y-134275000I237500J0D01*
G01*
X72662500Y-134275000D01*
G75*
G02*
X72900000Y-134512500I0J-237500D01*
G01*
G37*
G04 #@! TD*
G04 #@! TO.C,RC2*
G36*
G01*
X62925000Y-84362500D02*
X62925000Y-84837500D01*
G75*
G02*
X62687500Y-85075000I-237500J0D01*
G01*
X62187500Y-85075000D01*
G75*
G02*
X61950000Y-84837500I0J237500D01*
G01*
X61950000Y-84362500D01*
G75*
G02*
X62187500Y-84125000I237500J0D01*
G01*
X62687500Y-84125000D01*
G75*
G02*
X62925000Y-84362500I0J-237500D01*
G01*
G37*
G36*
G01*
X64750000Y-84362500D02*
X64750000Y-84837500D01*
G75*
G02*
X64512500Y-85075000I-237500J0D01*
G01*
X64012500Y-85075000D01*
G75*
G02*
X63775000Y-84837500I0J237500D01*
G01*
X63775000Y-84362500D01*
G75*
G02*
X64012500Y-84125000I237500J0D01*
G01*
X64512500Y-84125000D01*
G75*
G02*
X64750000Y-84362500I0J-237500D01*
G01*
G37*
G04 #@! TD*
G04 #@! TO.C,RC1*
G36*
G01*
X63775000Y-83337500D02*
X63775000Y-82862500D01*
G75*
G02*
X64012500Y-82625000I237500J0D01*
G01*
X64512500Y-82625000D01*
G75*
G02*
X64750000Y-82862500I0J-237500D01*
G01*
X64750000Y-83337500D01*
G75*
G02*
X64512500Y-83575000I-237500J0D01*
G01*
X64012500Y-83575000D01*
G75*
G02*
X63775000Y-83337500I0J237500D01*
G01*
G37*
G36*
G01*
X61950000Y-83337500D02*
X61950000Y-82862500D01*
G75*
G02*
X62187500Y-82625000I237500J0D01*
G01*
X62687500Y-82625000D01*
G75*
G02*
X62925000Y-82862500I0J-237500D01*
G01*
X62925000Y-83337500D01*
G75*
G02*
X62687500Y-83575000I-237500J0D01*
G01*
X62187500Y-83575000D01*
G75*
G02*
X61950000Y-83337500I0J237500D01*
G01*
G37*
G04 #@! TD*
G04 #@! TO.C,RC4*
G36*
G01*
X78637500Y-112975000D02*
X78162500Y-112975000D01*
G75*
G02*
X77925000Y-112737500I0J237500D01*
G01*
X77925000Y-112237500D01*
G75*
G02*
X78162500Y-112000000I237500J0D01*
G01*
X78637500Y-112000000D01*
G75*
G02*
X78875000Y-112237500I0J-237500D01*
G01*
X78875000Y-112737500D01*
G75*
G02*
X78637500Y-112975000I-237500J0D01*
G01*
G37*
G36*
G01*
X78637500Y-114800000D02*
X78162500Y-114800000D01*
G75*
G02*
X77925000Y-114562500I0J237500D01*
G01*
X77925000Y-114062500D01*
G75*
G02*
X78162500Y-113825000I237500J0D01*
G01*
X78637500Y-113825000D01*
G75*
G02*
X78875000Y-114062500I0J-237500D01*
G01*
X78875000Y-114562500D01*
G75*
G02*
X78637500Y-114800000I-237500J0D01*
G01*
G37*
G04 #@! TD*
G04 #@! TO.C,JST2*
G36*
G01*
X76656249Y-86050000D02*
X77956251Y-86050000D01*
G75*
G02*
X78206250Y-86299999I0J-249999D01*
G01*
X78206250Y-87000001D01*
G75*
G02*
X77956251Y-87250000I-249999J0D01*
G01*
X76656249Y-87250000D01*
G75*
G02*
X76406250Y-87000001I0J249999D01*
G01*
X76406250Y-86299999D01*
G75*
G02*
X76656249Y-86050000I249999J0D01*
G01*
G37*
G36*
G01*
X76656249Y-80450000D02*
X77956251Y-80450000D01*
G75*
G02*
X78206250Y-80699999I0J-249999D01*
G01*
X78206250Y-81400001D01*
G75*
G02*
X77956251Y-81650000I-249999J0D01*
G01*
X76656249Y-81650000D01*
G75*
G02*
X76406250Y-81400001I0J249999D01*
G01*
X76406250Y-80699999D01*
G75*
G02*
X76656249Y-80450000I249999J0D01*
G01*
G37*
G36*
G01*
X72806250Y-85050000D02*
X74056250Y-85050000D01*
G75*
G02*
X74206250Y-85200000I0J-150000D01*
G01*
X74206250Y-85500000D01*
G75*
G02*
X74056250Y-85650000I-150000J0D01*
G01*
X72806250Y-85650000D01*
G75*
G02*
X72656250Y-85500000I0J150000D01*
G01*
X72656250Y-85200000D01*
G75*
G02*
X72806250Y-85050000I150000J0D01*
G01*
G37*
G36*
G01*
X72806250Y-84050000D02*
X74056250Y-84050000D01*
G75*
G02*
X74206250Y-84200000I0J-150000D01*
G01*
X74206250Y-84500000D01*
G75*
G02*
X74056250Y-84650000I-150000J0D01*
G01*
X72806250Y-84650000D01*
G75*
G02*
X72656250Y-84500000I0J150000D01*
G01*
X72656250Y-84200000D01*
G75*
G02*
X72806250Y-84050000I150000J0D01*
G01*
G37*
G36*
G01*
X72806250Y-83050000D02*
X74056250Y-83050000D01*
G75*
G02*
X74206250Y-83200000I0J-150000D01*
G01*
X74206250Y-83500000D01*
G75*
G02*
X74056250Y-83650000I-150000J0D01*
G01*
X72806250Y-83650000D01*
G75*
G02*
X72656250Y-83500000I0J150000D01*
G01*
X72656250Y-83200000D01*
G75*
G02*
X72806250Y-83050000I150000J0D01*
G01*
G37*
G36*
G01*
X72806250Y-82050000D02*
X74056250Y-82050000D01*
G75*
G02*
X74206250Y-82200000I0J-150000D01*
G01*
X74206250Y-82500000D01*
G75*
G02*
X74056250Y-82650000I-150000J0D01*
G01*
X72806250Y-82650000D01*
G75*
G02*
X72656250Y-82500000I0J150000D01*
G01*
X72656250Y-82200000D01*
G75*
G02*
X72806250Y-82050000I150000J0D01*
G01*
G37*
G04 #@! TD*
G04 #@! TO.C,F1*
G36*
G01*
X68875000Y-80975000D02*
X68875000Y-79725000D01*
G75*
G02*
X69125000Y-79475000I250000J0D01*
G01*
X70050000Y-79475000D01*
G75*
G02*
X70300000Y-79725000I0J-250000D01*
G01*
X70300000Y-80975000D01*
G75*
G02*
X70050000Y-81225000I-250000J0D01*
G01*
X69125000Y-81225000D01*
G75*
G02*
X68875000Y-80975000I0J250000D01*
G01*
G37*
G36*
G01*
X65900000Y-80975000D02*
X65900000Y-79725000D01*
G75*
G02*
X66150000Y-79475000I250000J0D01*
G01*
X67075000Y-79475000D01*
G75*
G02*
X67325000Y-79725000I0J-250000D01*
G01*
X67325000Y-80975000D01*
G75*
G02*
X67075000Y-81225000I-250000J0D01*
G01*
X66150000Y-81225000D01*
G75*
G02*
X65900000Y-80975000I0J250000D01*
G01*
G37*
G04 #@! TD*
D17*
G04 #@! TO.C,D82*
X378000000Y-157250000D03*
X378000000Y-160550000D03*
G04 #@! TD*
G04 #@! TO.C,D81*
X359000000Y-157250000D03*
X359000000Y-160550000D03*
G04 #@! TD*
G04 #@! TO.C,D80*
X339800000Y-157250000D03*
X339800000Y-160550000D03*
G04 #@! TD*
G04 #@! TO.C,D79*
X313531250Y-152337500D03*
X313531250Y-155637500D03*
G04 #@! TD*
G04 #@! TO.C,D78*
X282575000Y-152337500D03*
X282575000Y-155637500D03*
G04 #@! TD*
G04 #@! TO.C,D76*
X204000000Y-152337500D03*
X204000000Y-155637500D03*
G04 #@! TD*
G04 #@! TO.C,D74*
X127750000Y-152337500D03*
X127750000Y-155637500D03*
G04 #@! TD*
G04 #@! TO.C,D73*
X115750000Y-152337500D03*
X115750000Y-155637500D03*
G04 #@! TD*
G04 #@! TO.C,D72*
X92250000Y-152337500D03*
X92250000Y-155637500D03*
G04 #@! TD*
G04 #@! TO.C,D71*
X58737500Y-152337500D03*
X58737500Y-155637500D03*
G04 #@! TD*
G04 #@! TO.C,D70*
X39687500Y-152337500D03*
X39687500Y-155637500D03*
G04 #@! TD*
G04 #@! TO.C,D69*
X382700000Y-133250000D03*
X382700000Y-136550000D03*
G04 #@! TD*
G04 #@! TO.C,D68*
X359000000Y-138250000D03*
X359000000Y-141550000D03*
G04 #@! TD*
G04 #@! TO.C,D67*
X327818750Y-133287500D03*
X327818750Y-136587500D03*
G04 #@! TD*
G04 #@! TO.C,D66*
X301625000Y-133287500D03*
X301625000Y-136587500D03*
G04 #@! TD*
G04 #@! TO.C,D65*
X282575000Y-133287500D03*
X282575000Y-136587500D03*
G04 #@! TD*
G04 #@! TO.C,D64*
X263525000Y-133287500D03*
X263525000Y-136587500D03*
G04 #@! TD*
G04 #@! TO.C,D63*
X244475000Y-133287500D03*
X244475000Y-136587500D03*
G04 #@! TD*
G04 #@! TO.C,D62*
X225425000Y-133287500D03*
X225425000Y-136587500D03*
G04 #@! TD*
G04 #@! TO.C,D61*
X206375000Y-133287500D03*
X206375000Y-136587500D03*
G04 #@! TD*
G04 #@! TO.C,D60*
X187325000Y-133287500D03*
X187325000Y-136587500D03*
G04 #@! TD*
G04 #@! TO.C,D59*
X168275000Y-133287500D03*
X168275000Y-136587500D03*
G04 #@! TD*
G04 #@! TO.C,D58*
X149225000Y-133287500D03*
X149225000Y-136587500D03*
G04 #@! TD*
G04 #@! TO.C,D57*
X130175000Y-133287500D03*
X130175000Y-136587500D03*
G04 #@! TD*
G04 #@! TO.C,D56*
X113750000Y-133287500D03*
X113750000Y-136587500D03*
G04 #@! TD*
G04 #@! TO.C,D55*
X99218750Y-133287500D03*
X99218750Y-136587500D03*
G04 #@! TD*
G04 #@! TO.C,D54*
X58737500Y-133287500D03*
X58737500Y-136587500D03*
G04 #@! TD*
G04 #@! TO.C,D53*
X39687500Y-133287500D03*
X39687500Y-136587500D03*
G04 #@! TD*
G04 #@! TO.C,D52*
X382700000Y-114237500D03*
X382700000Y-117537500D03*
G04 #@! TD*
G04 #@! TO.C,D51*
X349250000Y-112650000D03*
X349250000Y-115950000D03*
G04 #@! TD*
G04 #@! TO.C,D50*
X333375000Y-114237500D03*
X333375000Y-117537500D03*
G04 #@! TD*
G04 #@! TO.C,D49*
X311150000Y-114237500D03*
X311150000Y-117537500D03*
G04 #@! TD*
G04 #@! TO.C,D48*
X292100000Y-114237500D03*
X292100000Y-117537500D03*
G04 #@! TD*
G04 #@! TO.C,D47*
X273050000Y-114237500D03*
X273050000Y-117537500D03*
G04 #@! TD*
G04 #@! TO.C,D46*
X254000000Y-114237500D03*
X254000000Y-117537500D03*
G04 #@! TD*
G04 #@! TO.C,D45*
X234950000Y-114237500D03*
X234950000Y-117537500D03*
G04 #@! TD*
G04 #@! TO.C,D44*
X215900000Y-114237500D03*
X215900000Y-117537500D03*
G04 #@! TD*
G04 #@! TO.C,D43*
X196850000Y-114237500D03*
X196850000Y-117537500D03*
G04 #@! TD*
G04 #@! TO.C,D42*
X177800000Y-114237500D03*
X177800000Y-117537500D03*
G04 #@! TD*
G04 #@! TO.C,D41*
X158750000Y-114237500D03*
X158750000Y-117537500D03*
G04 #@! TD*
G04 #@! TO.C,D40*
X139700000Y-114237500D03*
X139700000Y-117537500D03*
G04 #@! TD*
G04 #@! TO.C,D39*
X120650000Y-114237500D03*
X120650000Y-117537500D03*
G04 #@! TD*
G04 #@! TO.C,D38*
X92075000Y-114237500D03*
X92075000Y-117537500D03*
G04 #@! TD*
G04 #@! TO.C,D37*
X58737500Y-114237500D03*
X58737500Y-117537500D03*
G04 #@! TD*
G04 #@! TO.C,D36*
X39687500Y-114237500D03*
X39687500Y-117537500D03*
G04 #@! TD*
G04 #@! TO.C,D35*
X382700000Y-95187500D03*
X382700000Y-98487500D03*
G04 #@! TD*
G04 #@! TO.C,D34*
X349250000Y-95187500D03*
X349250000Y-98487500D03*
G04 #@! TD*
G04 #@! TO.C,D33*
X325437500Y-95187500D03*
X325437500Y-98487500D03*
G04 #@! TD*
G04 #@! TO.C,D32*
X306387500Y-95187500D03*
X306387500Y-98487500D03*
G04 #@! TD*
G04 #@! TO.C,D31*
X287337500Y-95187500D03*
X287337500Y-98487500D03*
G04 #@! TD*
G04 #@! TO.C,D30*
X268287500Y-95187500D03*
X268287500Y-98487500D03*
G04 #@! TD*
G04 #@! TO.C,D29*
X249237500Y-95187500D03*
X249237500Y-98487500D03*
G04 #@! TD*
G04 #@! TO.C,D28*
X230187500Y-95187500D03*
X230187500Y-98487500D03*
G04 #@! TD*
G04 #@! TO.C,D27*
X211137500Y-95187500D03*
X211137500Y-98487500D03*
G04 #@! TD*
G04 #@! TO.C,D26*
X192087500Y-95187500D03*
X192087500Y-98487500D03*
G04 #@! TD*
G04 #@! TO.C,D25*
X173037500Y-95187500D03*
X173037500Y-98487500D03*
G04 #@! TD*
G04 #@! TO.C,D24*
X153987500Y-95187500D03*
X153987500Y-98487500D03*
G04 #@! TD*
G04 #@! TO.C,D23*
X134937500Y-95125000D03*
X134937500Y-98425000D03*
G04 #@! TD*
G04 #@! TO.C,D22*
X115887500Y-95187500D03*
X115887500Y-98487500D03*
G04 #@! TD*
G04 #@! TO.C,D21*
X92075000Y-95187500D03*
X92075000Y-98487500D03*
G04 #@! TD*
G04 #@! TO.C,D20*
X58737500Y-95187500D03*
X58737500Y-98487500D03*
G04 #@! TD*
G04 #@! TO.C,D19*
X39687500Y-95187500D03*
X39687500Y-98487500D03*
G04 #@! TD*
G04 #@! TO.C,D18*
X382700000Y-76137500D03*
X382700000Y-79437500D03*
G04 #@! TD*
G04 #@! TO.C,D17*
X357981250Y-76137500D03*
X357981250Y-79437500D03*
G04 #@! TD*
G04 #@! TO.C,D16*
X335756250Y-76137500D03*
X335756250Y-79437500D03*
G04 #@! TD*
G04 #@! TO.C,D15*
X315912500Y-76137500D03*
X315912500Y-79437500D03*
G04 #@! TD*
G04 #@! TO.C,D14*
X296862500Y-76137500D03*
X296862500Y-79437500D03*
G04 #@! TD*
G04 #@! TO.C,D13*
X277812500Y-76200000D03*
X277812500Y-79500000D03*
G04 #@! TD*
G04 #@! TO.C,D12*
X258762500Y-76137500D03*
X258762500Y-79437500D03*
G04 #@! TD*
G04 #@! TO.C,D11*
X239712500Y-76137500D03*
X239712500Y-79437500D03*
G04 #@! TD*
G04 #@! TO.C,D10*
X220662500Y-76137500D03*
X220662500Y-79437500D03*
G04 #@! TD*
G04 #@! TO.C,D9*
X201612500Y-76137500D03*
X201612500Y-79437500D03*
G04 #@! TD*
G04 #@! TO.C,D8*
X182562500Y-76137500D03*
X182562500Y-79437500D03*
G04 #@! TD*
G04 #@! TO.C,D7*
X163512500Y-76137500D03*
X163512500Y-79437500D03*
G04 #@! TD*
G04 #@! TO.C,D6*
X144462500Y-76137500D03*
X144462500Y-79437500D03*
G04 #@! TD*
G04 #@! TO.C,D5*
X125412500Y-76137500D03*
X125412500Y-79437500D03*
G04 #@! TD*
G04 #@! TO.C,D4*
X106362500Y-76137500D03*
X106362500Y-79437500D03*
G04 #@! TD*
G04 #@! TO.C,D3*
X87312500Y-76137500D03*
X87312500Y-79437500D03*
G04 #@! TD*
G04 #@! TO.C,D2*
X58737500Y-76137500D03*
X58737500Y-79437500D03*
G04 #@! TD*
G04 #@! TO.C,D1*
X39687500Y-76137500D03*
X39687500Y-79437500D03*
G04 #@! TD*
G04 #@! TO.C,CC2*
G36*
G01*
X71887500Y-90725000D02*
X71412500Y-90725000D01*
G75*
G02*
X71175000Y-90487500I0J237500D01*
G01*
X71175000Y-89887500D01*
G75*
G02*
X71412500Y-89650000I237500J0D01*
G01*
X71887500Y-89650000D01*
G75*
G02*
X72125000Y-89887500I0J-237500D01*
G01*
X72125000Y-90487500D01*
G75*
G02*
X71887500Y-90725000I-237500J0D01*
G01*
G37*
G36*
G01*
X71887500Y-92450000D02*
X71412500Y-92450000D01*
G75*
G02*
X71175000Y-92212500I0J237500D01*
G01*
X71175000Y-91612500D01*
G75*
G02*
X71412500Y-91375000I237500J0D01*
G01*
X71887500Y-91375000D01*
G75*
G02*
X72125000Y-91612500I0J-237500D01*
G01*
X72125000Y-92212500D01*
G75*
G02*
X71887500Y-92450000I-237500J0D01*
G01*
G37*
G04 #@! TD*
G04 #@! TO.C,CC1*
G36*
G01*
X74687500Y-90725000D02*
X74212500Y-90725000D01*
G75*
G02*
X73975000Y-90487500I0J237500D01*
G01*
X73975000Y-89887500D01*
G75*
G02*
X74212500Y-89650000I237500J0D01*
G01*
X74687500Y-89650000D01*
G75*
G02*
X74925000Y-89887500I0J-237500D01*
G01*
X74925000Y-90487500D01*
G75*
G02*
X74687500Y-90725000I-237500J0D01*
G01*
G37*
G36*
G01*
X74687500Y-92450000D02*
X74212500Y-92450000D01*
G75*
G02*
X73975000Y-92212500I0J237500D01*
G01*
X73975000Y-91612500D01*
G75*
G02*
X74212500Y-91375000I237500J0D01*
G01*
X74687500Y-91375000D01*
G75*
G02*
X74925000Y-91612500I0J-237500D01*
G01*
X74925000Y-92212500D01*
G75*
G02*
X74687500Y-92450000I-237500J0D01*
G01*
G37*
G04 #@! TD*
G04 #@! TO.C,C8*
G36*
G01*
X70662500Y-103137500D02*
X70662500Y-102662500D01*
G75*
G02*
X70900000Y-102425000I237500J0D01*
G01*
X71500000Y-102425000D01*
G75*
G02*
X71737500Y-102662500I0J-237500D01*
G01*
X71737500Y-103137500D01*
G75*
G02*
X71500000Y-103375000I-237500J0D01*
G01*
X70900000Y-103375000D01*
G75*
G02*
X70662500Y-103137500I0J237500D01*
G01*
G37*
G36*
G01*
X68937500Y-103137500D02*
X68937500Y-102662500D01*
G75*
G02*
X69175000Y-102425000I237500J0D01*
G01*
X69775000Y-102425000D01*
G75*
G02*
X70012500Y-102662500I0J-237500D01*
G01*
X70012500Y-103137500D01*
G75*
G02*
X69775000Y-103375000I-237500J0D01*
G01*
X69175000Y-103375000D01*
G75*
G02*
X68937500Y-103137500I0J237500D01*
G01*
G37*
G04 #@! TD*
G04 #@! TO.C,C7*
G36*
G01*
X78237500Y-105175000D02*
X77762500Y-105175000D01*
G75*
G02*
X77525000Y-104937500I0J237500D01*
G01*
X77525000Y-104337500D01*
G75*
G02*
X77762500Y-104100000I237500J0D01*
G01*
X78237500Y-104100000D01*
G75*
G02*
X78475000Y-104337500I0J-237500D01*
G01*
X78475000Y-104937500D01*
G75*
G02*
X78237500Y-105175000I-237500J0D01*
G01*
G37*
G36*
G01*
X78237500Y-106900000D02*
X77762500Y-106900000D01*
G75*
G02*
X77525000Y-106662500I0J237500D01*
G01*
X77525000Y-106062500D01*
G75*
G02*
X77762500Y-105825000I237500J0D01*
G01*
X78237500Y-105825000D01*
G75*
G02*
X78475000Y-106062500I0J-237500D01*
G01*
X78475000Y-106662500D01*
G75*
G02*
X78237500Y-106900000I-237500J0D01*
G01*
G37*
G04 #@! TD*
G04 #@! TO.C,C5*
G36*
G01*
X70025000Y-116237500D02*
X70025000Y-115762500D01*
G75*
G02*
X70262500Y-115525000I237500J0D01*
G01*
X70862500Y-115525000D01*
G75*
G02*
X71100000Y-115762500I0J-237500D01*
G01*
X71100000Y-116237500D01*
G75*
G02*
X70862500Y-116475000I-237500J0D01*
G01*
X70262500Y-116475000D01*
G75*
G02*
X70025000Y-116237500I0J237500D01*
G01*
G37*
G36*
G01*
X68300000Y-116237500D02*
X68300000Y-115762500D01*
G75*
G02*
X68537500Y-115525000I237500J0D01*
G01*
X69137500Y-115525000D01*
G75*
G02*
X69375000Y-115762500I0J-237500D01*
G01*
X69375000Y-116237500D01*
G75*
G02*
X69137500Y-116475000I-237500J0D01*
G01*
X68537500Y-116475000D01*
G75*
G02*
X68300000Y-116237500I0J237500D01*
G01*
G37*
G04 #@! TD*
G04 #@! TO.C,C2*
G36*
G01*
X64572500Y-109612500D02*
X64572500Y-110087500D01*
G75*
G02*
X64335000Y-110325000I-237500J0D01*
G01*
X63735000Y-110325000D01*
G75*
G02*
X63497500Y-110087500I0J237500D01*
G01*
X63497500Y-109612500D01*
G75*
G02*
X63735000Y-109375000I237500J0D01*
G01*
X64335000Y-109375000D01*
G75*
G02*
X64572500Y-109612500I0J-237500D01*
G01*
G37*
G36*
G01*
X66297500Y-109612500D02*
X66297500Y-110087500D01*
G75*
G02*
X66060000Y-110325000I-237500J0D01*
G01*
X65460000Y-110325000D01*
G75*
G02*
X65222500Y-110087500I0J237500D01*
G01*
X65222500Y-109612500D01*
G75*
G02*
X65460000Y-109375000I237500J0D01*
G01*
X66060000Y-109375000D01*
G75*
G02*
X66297500Y-109612500I0J-237500D01*
G01*
G37*
G04 #@! TD*
M02*
